<svg width="38" height="38" viewBox="0 0 38 38" fill="none" xmlns="http://www.w3.org/2000/svg">
<path d="M24.6571 37H33.9143V21.1176H36C36.5523 21.1176 37 20.6699 37 20.1176V19V18.3469C37 18.0867 36.8986 17.8368 36.7173 17.6501L20.8374 1.30321C20.6491 1.10938 20.3904 1 20.1201 1H17.8799C17.6096 1 17.3509 1.10937 17.1626 1.30321L1.28272 17.6501C1.10142 17.8368 1 18.0867 1 18.3469C1 18.5121 1 18.729 1 19C1 19.3042 1 19.7287 1 20.1178C1 20.6701 1.44771 21.1176 2 21.1176H4.08571V37H13.3429M24.6571 37V29.4993C24.6571 28.1983 24.1501 26.9486 23.2435 26.0154L23.07 25.8367C22.7581 25.5157 22.4045 25.2379 22.0187 25.011L21.5351 24.7265C19.9704 23.8061 18.0296 23.8061 16.4649 24.7265L15.9813 25.011C15.5955 25.2379 15.2419 25.5157 14.93 25.8367L14.7565 26.0154C13.8499 26.9486 13.3429 28.1983 13.3429 29.4993V37M24.6571 37H13.3429" stroke="#C2D5FF" stroke-width="2"/>
</svg>
