<svg width="32" height="42" viewBox="0 0 32 42" fill="none" xmlns="http://www.w3.org/2000/svg">
<path d="M20.1618 0.75H0.75V40.75H30.75V11.6935M20.1618 0.75L30.75 11.6935M20.1618 0.75V11.3935C20.1618 11.5592 20.2961 11.6935 20.4618 11.6935H30.75M25.4559 29.5024H5.16176M5.16176 33.2516H25.4559M25.4559 37.0008H5.16176M19.2794 25.7531V14.8055C19.2794 14.6398 19.4137 14.5055 19.5794 14.5055H21.6265C21.7922 14.5055 21.9265 14.6398 21.9265 14.8055V25.7531M24.5735 25.7531V17.6174C24.5735 17.4517 24.7078 17.3174 24.8735 17.3174H26.9206C27.0863 17.3174 27.2206 17.4517 27.2206 17.6174V25.7531M14.0595 20.0905C14.2023 19.8048 14.3139 19.5044 14.3923 19.1947L14.7731 17.691C14.821 17.5015 14.6778 17.3174 14.4822 17.3174H9.87353C9.70784 17.3174 9.57353 17.1831 9.57353 17.0174V12.9173C9.57353 12.7636 9.44134 12.6433 9.28835 12.6577C7.77207 12.8002 6.44099 13.7259 5.77976 15.0978L5.62364 15.4218C5.31964 16.0525 5.16176 16.7437 5.16176 17.4439V17.4795C5.16176 18.8805 5.69649 20.2287 6.65678 21.2488L6.68846 21.2824C6.84693 21.4508 7.01723 21.6076 7.19805 21.7516C8.14345 22.5048 9.3762 22.7957 10.5586 22.5445L11.0105 22.4485C12.3327 22.1675 13.455 21.2996 14.0595 20.0905ZM12.2987 12.6309H11.596C11.4536 12.6309 11.3382 12.7462 11.3382 12.8886V15.1428C11.3382 15.3085 11.4725 15.4428 11.6382 15.4428H14.2577C14.5597 15.4428 14.7747 15.1492 14.6836 14.8612L14.4844 14.2317C14.3475 13.7991 14.0853 13.4168 13.7309 13.1333C13.3244 12.8081 12.8193 12.6309 12.2987 12.6309Z" stroke="#0E3EA5" stroke-width="1.5" stroke-linecap="round"/>
</svg>
