<svg width="36" height="36" viewBox="0 0 36 36" fill="none" xmlns="http://www.w3.org/2000/svg">
<circle cx="18" cy="18" r="16.75" stroke="#C2D5FF" stroke-width="2.5"/>
<path d="M11.7247 12.0163C11.3754 13.0642 11.9417 14.1968 12.9896 14.5461C14.0375 14.8954 15.1701 14.3291 15.5194 13.2812L13.6221 12.6487L11.7247 12.0163ZM17.6678 21.4305L19.5652 22.0629L17.6678 21.4305ZM18.462 19.8172L16.862 18.6172L18.462 19.8172ZM17.7572 21.1622L19.6546 21.7947L17.7572 21.1622ZM19.9837 17.9627L18.5695 16.5485L19.9837 17.9627ZM19.0154 19.0792L20.6154 20.2792L19.0154 19.0792ZM21.8537 15.6449L20.0649 14.7505L21.8537 15.6449ZM21.4481 10.5124L19.8864 11.7618L21.4481 10.5124ZM13.6221 12.6487L15.5194 13.2812L15.8424 12.3124L13.945 11.68L12.0476 11.0475L11.7247 12.0163L13.6221 12.6487ZM18.5212 8.92471L18.1924 10.8975L18.501 10.9489L18.8298 8.97615L19.1586 7.00336L18.85 6.95192L18.5212 8.92471ZM22.3788 13.1656H20.3788V13.4205H22.3788H24.3788V13.1656H22.3788ZM21.8537 15.6449L20.0649 14.7505L20.0134 14.8535L21.8022 15.7479L23.5911 16.6423L23.6426 16.5393L21.8537 15.6449ZM20.7791 17.1673L19.3649 15.7531L18.5695 16.5485L19.9837 17.9627L21.398 19.3769L22.1934 18.5815L20.7791 17.1673ZM19.0154 19.0792L17.4154 17.8792L16.862 18.6172L18.462 19.8172L20.062 21.0171L20.6154 20.2792L19.0154 19.0792ZM17.7572 21.1622L15.8598 20.5298L15.7704 20.798L17.6678 21.4305L19.5652 22.0629L19.6546 21.7947L17.7572 21.1622ZM17.6678 21.4305L15.7704 20.798C15.6006 21.3076 15.514 21.8413 15.514 22.3785H17.514H19.514C19.514 22.2712 19.5313 22.1647 19.5652 22.0629L17.6678 21.4305ZM18.462 19.8172L16.862 18.6172C16.4273 19.1967 16.0889 19.8425 15.8598 20.5298L17.7572 21.1622L19.6546 21.7947C19.7477 21.5153 19.8853 21.2528 20.062 21.0171L18.462 19.8172ZM19.9837 17.9627L18.5695 16.5485C18.1538 16.9642 17.7682 17.4089 17.4154 17.8792L19.0154 19.0792L20.6154 20.2792C20.8546 19.9603 21.1161 19.6588 21.398 19.3769L19.9837 17.9627ZM21.8022 15.7479L20.0134 14.8535C19.847 15.1862 19.628 15.49 19.3649 15.7531L20.7791 17.1673L22.1934 18.5815C22.7605 18.0145 23.2324 17.3596 23.5911 16.6423L21.8022 15.7479ZM22.3788 13.4205H20.3788C20.3788 13.8822 20.2713 14.3375 20.0649 14.7505L21.8537 15.6449L23.6426 16.5393C24.1268 15.571 24.3788 14.5032 24.3788 13.4205H22.3788ZM21.4481 10.5124L19.8864 11.7618C20.2052 12.1602 20.3788 12.6553 20.3788 13.1656H22.3788H24.3788C24.3788 11.747 23.896 10.3707 23.0099 9.26298L21.4481 10.5124ZM18.8298 8.97615L18.501 10.9489C19.0472 11.04 19.5405 11.3294 19.8864 11.7618L21.4481 10.5124L23.0099 9.26298C22.0483 8.06105 20.6769 7.2564 19.1586 7.00336L18.8298 8.97615ZM16.5452 9.07975L17.1777 10.9771C17.5044 10.8682 17.8527 10.8409 18.1924 10.8975L18.5212 8.92471L18.85 6.95192C17.8668 6.78805 16.8584 6.86717 15.9128 7.18239L16.5452 9.07975ZM13.945 11.68L15.8424 12.3124C16.0525 11.682 16.5472 11.1873 17.1777 10.9771L16.5452 9.07975L15.9128 7.18239C14.0879 7.79068 12.6559 9.22265 12.0476 11.0475L13.945 11.68Z" fill="#C2D5FF"/>
<rect x="15.5674" y="24.3242" width="3.89189" height="3.89189" rx="1" fill="#C2D5FF"/>
</svg>
