<svg width="305" height="40" viewBox="0 0 305 40" fill="none" xmlns="http://www.w3.org/2000/svg">
<path d="M52.54 21.1895H49.1367L49.1201 20.3262H52.0503C52.6479 20.3262 53.1571 20.2404 53.5776 20.0688C53.9982 19.8973 54.3164 19.6427 54.5322 19.3052C54.7536 18.9621 54.8643 18.5415 54.8643 18.0435C54.8643 17.5343 54.7563 17.1138 54.5405 16.7817C54.3247 16.4442 54.001 16.1951 53.5693 16.0347C53.1377 15.8742 52.5954 15.7939 51.9424 15.7939H49.4023V27H48.3813V14.9141H51.9424C52.5566 14.9141 53.1073 14.9749 53.5942 15.0967C54.0812 15.2184 54.4963 15.4093 54.8394 15.6694C55.1825 15.9295 55.4425 16.2588 55.6196 16.6572C55.8022 17.0501 55.8936 17.5205 55.8936 18.0684C55.8936 18.5664 55.7829 19.0174 55.5615 19.4214C55.3402 19.8198 55.0275 20.1463 54.6235 20.4009C54.2251 20.6499 53.7464 20.8049 53.1875 20.8657L52.54 21.1895ZM52.4653 27H48.813L49.3359 26.1284H52.4653C53.063 26.1284 53.5721 26.0288 53.9927 25.8296C54.4188 25.6248 54.7453 25.3343 54.9722 24.958C55.1991 24.5817 55.3125 24.1335 55.3125 23.6133C55.3125 23.154 55.2129 22.7417 55.0137 22.3765C54.8145 22.0112 54.5101 21.7235 54.1006 21.5132C53.6911 21.2974 53.1709 21.1895 52.54 21.1895H50.4233L50.4399 20.3262H53.4365L53.6191 20.6333C54.1615 20.6886 54.6346 20.8574 55.0386 21.1396C55.4481 21.4163 55.7635 21.7677 55.9849 22.1938C56.2118 22.62 56.3252 23.0876 56.3252 23.5967C56.3252 24.3271 56.1619 24.9469 55.8354 25.4561C55.5145 25.9596 55.0635 26.3442 54.4824 26.6099C53.9069 26.87 53.2345 27 52.4653 27ZM64.7007 22.0361V22.8828H59.3716V22.0361H64.7007ZM59.6289 18.0186V27H58.6411V18.0186H59.6289ZM65.4644 18.0186V27H64.4683V18.0186H65.4644ZM69.1831 25.3896L74.0391 18.0186H75.0352V27H74.0391V19.6289L69.1831 27H68.2036V18.0186H69.1831V25.3896ZM82.6636 25.6387L86.2329 18.0186H87.2207L83.0122 27H82.3149L78.1147 18.0186H79.1025L82.6636 25.6387ZM78.7954 18.0186V27H77.8076V18.0186H78.7954ZM86.4653 27V18.0186H87.4614V27H86.4653ZM95.5962 25.3896V20.7578C95.5962 20.3317 95.5076 19.9637 95.3306 19.6538C95.1535 19.3439 94.8934 19.106 94.5503 18.9399C94.2072 18.7739 93.7839 18.6909 93.2803 18.6909C92.8154 18.6909 92.4004 18.7739 92.0352 18.9399C91.6755 19.1004 91.3905 19.319 91.1802 19.5957C90.9754 19.8669 90.873 20.1685 90.873 20.5005L89.877 20.4922C89.877 20.1546 89.96 19.8281 90.126 19.5127C90.292 19.1973 90.5272 18.915 90.8315 18.666C91.1359 18.417 91.4984 18.2205 91.9189 18.0767C92.3451 17.9272 92.8127 17.8525 93.3218 17.8525C93.9637 17.8525 94.5282 17.9604 95.0151 18.1763C95.5076 18.3921 95.8923 18.7158 96.1689 19.1475C96.4456 19.5791 96.584 20.1214 96.584 20.7744V25.1157C96.584 25.4256 96.6061 25.7466 96.6504 26.0786C96.7002 26.4106 96.7694 26.6846 96.8579 26.9004V27H95.8037C95.7373 26.8008 95.6847 26.5518 95.646 26.2529C95.6128 25.9486 95.5962 25.6608 95.5962 25.3896ZM95.8286 21.7705L95.8452 22.5342H93.8945C93.3854 22.5342 92.9289 22.5812 92.5249 22.6753C92.1265 22.7638 91.7889 22.8966 91.5122 23.0737C91.2355 23.2453 91.0225 23.4528 90.873 23.6963C90.7292 23.9398 90.6572 24.2165 90.6572 24.5264C90.6572 24.8473 90.7375 25.1406 90.8979 25.4062C91.064 25.6719 91.2964 25.8849 91.5952 26.0454C91.8996 26.2004 92.2593 26.2778 92.6743 26.2778C93.2277 26.2778 93.7147 26.1755 94.1353 25.9707C94.5614 25.766 94.9128 25.4976 95.1895 25.1655C95.4661 24.8335 95.6515 24.471 95.7456 24.0781L96.1772 24.6509C96.1053 24.9276 95.9725 25.2126 95.7788 25.5059C95.5907 25.7936 95.3444 26.0648 95.04 26.3193C94.7357 26.5684 94.376 26.7731 93.9609 26.9336C93.5514 27.0885 93.0866 27.166 92.5664 27.166C91.9798 27.166 91.4679 27.0553 91.0308 26.834C90.5991 26.6126 90.2616 26.311 90.0181 25.9292C89.7801 25.5418 89.6611 25.1047 89.6611 24.6177C89.6611 24.175 89.7552 23.7793 89.9434 23.4307C90.1315 23.0765 90.4027 22.7777 90.7568 22.5342C91.1165 22.2852 91.5482 22.097 92.0518 21.9697C92.5609 21.8369 93.1309 21.7705 93.7617 21.7705H95.8286ZM105.375 22.0361V22.8828H100.045V22.0361H105.375ZM100.303 18.0186V27H99.3149V18.0186H100.303ZM106.138 18.0186V27H105.142V18.0186H106.138ZM109.857 25.3896L114.713 18.0186H115.709V27H114.713V19.6289L109.857 27H108.877V18.0186H109.857V25.3896ZM121.843 27.166C121.257 27.166 120.717 27.0581 120.225 26.8423C119.738 26.6265 119.312 26.3221 118.946 25.9292C118.587 25.5363 118.307 25.0715 118.108 24.5347C117.914 23.9924 117.817 23.4002 117.817 22.7583V22.4014C117.817 21.7096 117.92 21.0843 118.125 20.5254C118.329 19.9665 118.611 19.4878 118.971 19.0894C119.331 18.6909 119.74 18.3866 120.2 18.1763C120.665 17.9604 121.152 17.8525 121.661 17.8525C122.231 17.8525 122.737 17.9549 123.18 18.1597C123.622 18.3589 123.993 18.6439 124.292 19.0146C124.596 19.3799 124.826 19.8143 124.981 20.3179C125.136 20.8159 125.213 21.3665 125.213 21.9697V22.5757H118.415V21.729H124.226V21.6128C124.215 21.1092 124.112 20.6388 123.918 20.2017C123.73 19.759 123.448 19.3993 123.072 19.1226C122.695 18.8459 122.225 18.7075 121.661 18.7075C121.24 18.7075 120.853 18.7961 120.499 18.9731C120.15 19.1502 119.848 19.4048 119.594 19.7368C119.345 20.0633 119.151 20.4535 119.013 20.9072C118.88 21.3555 118.813 21.8535 118.813 22.4014V22.7583C118.813 23.2563 118.885 23.7212 119.029 24.1528C119.179 24.5789 119.389 24.9552 119.66 25.2817C119.937 25.6082 120.263 25.8628 120.64 26.0454C121.016 26.228 121.431 26.3193 121.885 26.3193C122.416 26.3193 122.886 26.2225 123.296 26.0288C123.705 25.8296 124.073 25.5169 124.4 25.0908L125.022 25.5723C124.829 25.86 124.585 26.1257 124.292 26.3691C124.004 26.6126 123.658 26.8063 123.254 26.9502C122.85 27.0941 122.38 27.166 121.843 27.166ZM128.285 14.9141L128.227 23.6299H127.313L127.255 14.9141H128.285ZM127.147 26.4106C127.147 26.2225 127.206 26.0648 127.322 25.9375C127.444 25.8047 127.612 25.7383 127.828 25.7383C128.038 25.7383 128.204 25.8047 128.326 25.9375C128.453 26.0648 128.517 26.2225 128.517 26.4106C128.517 26.5933 128.453 26.751 128.326 26.8838C128.204 27.0111 128.038 27.0747 127.828 27.0747C127.612 27.0747 127.444 27.0111 127.322 26.8838C127.206 26.751 127.147 26.5933 127.147 26.4106ZM136.444 14.9141V27H135.423V14.9141H136.444ZM144.015 14.9141L138.652 21.3306H136.038L135.946 20.4507H138.055L142.736 14.9141H144.015ZM143.11 27L138.005 21.2144L138.594 20.3179L144.38 27H143.11ZM146.795 19.7451V30.4531H145.799V18.0186H146.729L146.795 19.7451ZM153.038 22.4263V22.6006C153.038 23.2702 152.96 23.8844 152.805 24.4434C152.65 25.0023 152.426 25.4865 152.133 25.896C151.845 26.3 151.488 26.6126 151.062 26.834C150.636 27.0553 150.152 27.166 149.609 27.166C149.073 27.166 148.594 27.083 148.173 26.917C147.753 26.751 147.39 26.5158 147.086 26.2114C146.787 25.9015 146.546 25.5418 146.364 25.1323C146.187 24.7173 146.062 24.2635 145.99 23.771V21.4717C146.073 20.9294 146.209 20.4368 146.397 19.9941C146.585 19.5514 146.826 19.1696 147.119 18.8486C147.418 18.5277 147.772 18.2814 148.182 18.1099C148.591 17.9383 149.059 17.8525 149.584 17.8525C150.132 17.8525 150.619 17.9604 151.045 18.1763C151.477 18.3866 151.84 18.6937 152.133 19.0977C152.432 19.4961 152.656 19.9775 152.805 20.542C152.96 21.1009 153.038 21.729 153.038 22.4263ZM152.042 22.6006V22.4263C152.042 21.9006 151.986 21.4136 151.875 20.9653C151.77 20.5171 151.607 20.127 151.386 19.7949C151.17 19.4574 150.893 19.1945 150.556 19.0063C150.224 18.8182 149.828 18.7241 149.369 18.7241C148.893 18.7241 148.486 18.8044 148.148 18.9648C147.816 19.1198 147.54 19.3273 147.318 19.5874C147.097 19.842 146.923 20.1214 146.795 20.4258C146.668 20.7301 146.574 21.029 146.513 21.3223V23.9702C146.618 24.3908 146.787 24.7809 147.02 25.1406C147.252 25.4948 147.562 25.7798 147.949 25.9956C148.342 26.2059 148.821 26.311 149.385 26.311C149.839 26.311 150.232 26.217 150.564 26.0288C150.896 25.8407 151.17 25.5778 151.386 25.2402C151.607 24.9027 151.77 24.5098 151.875 24.0615C151.986 23.6133 152.042 23.1263 152.042 22.6006ZM156.292 25.3896L161.147 18.0186H162.144V27H161.147V19.6289L156.292 27H155.312V18.0186H156.292V25.3896ZM167.979 18.0186V27H166.991V18.0186H167.979ZM171.25 18.0186V18.8652H163.837V18.0186H171.25ZM173.939 25.3896L178.795 18.0186H179.791V27H178.795V19.6289L173.939 27H172.959V18.0186H173.939V25.3896ZM188.839 18.0186V27H187.851V18.0186H188.839ZM188.499 22.0942V22.9492C188.244 23.071 187.951 23.1872 187.619 23.2979C187.292 23.4085 186.946 23.4998 186.581 23.5718C186.221 23.6382 185.862 23.6714 185.502 23.6714C184.76 23.6714 184.132 23.5635 183.618 23.3477C183.109 23.1318 182.724 22.7777 182.464 22.2852C182.204 21.7871 182.074 21.123 182.074 20.293V18.0103H183.062V20.293C183.062 20.9294 183.15 21.4329 183.327 21.8037C183.504 22.1689 183.773 22.429 184.132 22.584C184.492 22.7389 184.949 22.8164 185.502 22.8164C185.884 22.8053 186.263 22.7666 186.639 22.7002C187.015 22.6283 187.364 22.5397 187.685 22.4346C188.012 22.3239 188.283 22.2104 188.499 22.0942ZM194.973 27.166C194.387 27.166 193.847 27.0581 193.354 26.8423C192.868 26.6265 192.441 26.3221 192.076 25.9292C191.716 25.5363 191.437 25.0715 191.238 24.5347C191.044 23.9924 190.947 23.4002 190.947 22.7583V22.4014C190.947 21.7096 191.05 21.0843 191.254 20.5254C191.459 19.9665 191.741 19.4878 192.101 19.0894C192.461 18.6909 192.87 18.3866 193.33 18.1763C193.794 17.9604 194.281 17.8525 194.791 17.8525C195.361 17.8525 195.867 17.9549 196.31 18.1597C196.752 18.3589 197.123 18.6439 197.422 19.0146C197.726 19.3799 197.956 19.8143 198.111 20.3179C198.266 20.8159 198.343 21.3665 198.343 21.9697V22.5757H191.545V21.729H197.355V21.6128C197.344 21.1092 197.242 20.6388 197.048 20.2017C196.86 19.759 196.578 19.3993 196.202 19.1226C195.825 18.8459 195.355 18.7075 194.791 18.7075C194.37 18.7075 193.983 18.7961 193.628 18.9731C193.28 19.1502 192.978 19.4048 192.724 19.7368C192.475 20.0633 192.281 20.4535 192.143 20.9072C192.01 21.3555 191.943 21.8535 191.943 22.4014V22.7583C191.943 23.2563 192.015 23.7212 192.159 24.1528C192.309 24.5789 192.519 24.9552 192.79 25.2817C193.067 25.6082 193.393 25.8628 193.77 26.0454C194.146 26.228 194.561 26.3193 195.015 26.3193C195.546 26.3193 196.016 26.2225 196.426 26.0288C196.835 25.8296 197.203 25.5169 197.53 25.0908L198.152 25.5723C197.959 25.86 197.715 26.1257 197.422 26.3691C197.134 26.6126 196.788 26.8063 196.384 26.9502C195.98 27.0941 195.51 27.166 194.973 27.166ZM203.614 26.311C204.035 26.311 204.428 26.2336 204.793 26.0786C205.164 25.9181 205.468 25.6829 205.706 25.373C205.95 25.0576 206.088 24.673 206.121 24.2192H207.067C207.04 24.7892 206.865 25.2983 206.544 25.7466C206.229 26.1893 205.814 26.5379 205.299 26.7925C204.79 27.0415 204.229 27.166 203.614 27.166C202.989 27.166 202.436 27.0526 201.954 26.8257C201.478 26.5988 201.08 26.2834 200.759 25.8794C200.438 25.4699 200.194 24.994 200.028 24.4517C199.868 23.9038 199.788 23.3145 199.788 22.6836V22.335C199.788 21.7041 199.868 21.1175 200.028 20.5752C200.194 20.0273 200.438 19.5514 200.759 19.1475C201.08 18.738 201.478 18.4198 201.954 18.1929C202.43 17.966 202.981 17.8525 203.606 17.8525C204.248 17.8525 204.823 17.9826 205.333 18.2427C205.847 18.5028 206.257 18.8708 206.561 19.3467C206.871 19.8226 207.04 20.387 207.067 21.04H206.121C206.093 20.5586 205.966 20.1436 205.739 19.7949C205.512 19.4463 205.214 19.1779 204.843 18.9897C204.472 18.8016 204.06 18.7075 203.606 18.7075C203.097 18.7075 202.662 18.8071 202.303 19.0063C201.943 19.2 201.65 19.4684 201.423 19.8115C201.201 20.1491 201.038 20.5365 200.933 20.9736C200.828 21.4053 200.775 21.859 200.775 22.335V22.6836C200.775 23.165 200.825 23.6243 200.925 24.0615C201.03 24.4932 201.193 24.8778 201.415 25.2153C201.641 25.5529 201.935 25.8213 202.294 26.0205C202.66 26.2142 203.1 26.311 203.614 26.311ZM210.122 18.0186V27H209.126V18.0186H210.122ZM216.032 18.0186L211.915 22.8828H209.773L209.666 21.9946H211.492L214.779 18.0186H216.032ZM215.136 27L211.392 22.75L212.023 21.9863L216.447 27H215.136ZM218.929 25.3896L223.785 18.0186H224.781V27H223.785V19.6289L218.929 27H217.95V18.0186H218.929V25.3896ZM228.492 25.3896L233.348 18.0186H234.344V27H233.348V19.6289L228.492 27H227.512V18.0186H228.492V25.3896ZM232.435 14.7979H233.281C233.281 15.2129 233.184 15.5809 232.991 15.9019C232.803 16.2228 232.529 16.4746 232.169 16.6572C231.809 16.8398 231.383 16.9312 230.891 16.9312C230.149 16.9312 229.562 16.7319 229.131 16.3335C228.705 15.9351 228.492 15.4232 228.492 14.7979H229.33C229.33 15.1797 229.446 15.5117 229.679 15.7939C229.917 16.0706 230.321 16.209 230.891 16.209C231.444 16.209 231.84 16.0679 232.078 15.7856C232.316 15.5034 232.435 15.1742 232.435 14.7979ZM240.611 22.6504V22.3765C240.611 21.7235 240.705 21.1203 240.893 20.5669C241.081 20.0135 241.35 19.5348 241.698 19.1309C242.052 18.7269 242.476 18.4142 242.968 18.1929C243.461 17.966 244.009 17.8525 244.612 17.8525C245.221 17.8525 245.771 17.966 246.264 18.1929C246.756 18.4142 247.18 18.7269 247.534 19.1309C247.888 19.5348 248.159 20.0135 248.347 20.5669C248.535 21.1203 248.629 21.7235 248.629 22.3765V22.6504C248.629 23.3034 248.535 23.9066 248.347 24.46C248.159 25.0078 247.888 25.4837 247.534 25.8877C247.185 26.2917 246.764 26.6071 246.272 26.834C245.779 27.0553 245.232 27.166 244.628 27.166C244.02 27.166 243.469 27.0553 242.977 26.834C242.484 26.6071 242.061 26.2917 241.707 25.8877C241.352 25.4837 241.081 25.0078 240.893 24.46C240.705 23.9066 240.611 23.3034 240.611 22.6504ZM241.599 22.3765V22.6504C241.599 23.1429 241.665 23.6105 241.798 24.0532C241.931 24.4904 242.124 24.8805 242.379 25.2236C242.633 25.5612 242.949 25.8268 243.325 26.0205C243.701 26.2142 244.136 26.311 244.628 26.311C245.115 26.311 245.544 26.2142 245.915 26.0205C246.291 25.8268 246.607 25.5612 246.861 25.2236C247.116 24.8805 247.307 24.4904 247.434 24.0532C247.567 23.6105 247.633 23.1429 247.633 22.6504V22.3765C247.633 21.8895 247.567 21.4274 247.434 20.9902C247.307 20.5531 247.113 20.1629 246.853 19.8198C246.598 19.4767 246.283 19.2056 245.907 19.0063C245.53 18.8071 245.099 18.7075 244.612 18.7075C244.125 18.7075 243.693 18.8071 243.317 19.0063C242.946 19.2056 242.631 19.4767 242.371 19.8198C242.116 20.1629 241.922 20.5531 241.79 20.9902C241.662 21.4274 241.599 21.8895 241.599 22.3765ZM254 26.311C254.421 26.311 254.813 26.2336 255.179 26.0786C255.549 25.9181 255.854 25.6829 256.092 25.373C256.335 25.0576 256.474 24.673 256.507 24.2192H257.453C257.425 24.7892 257.251 25.2983 256.93 25.7466C256.615 26.1893 256.2 26.5379 255.685 26.7925C255.176 27.0415 254.614 27.166 254 27.166C253.375 27.166 252.821 27.0526 252.34 26.8257C251.864 26.5988 251.465 26.2834 251.145 25.8794C250.824 25.4699 250.58 24.994 250.414 24.4517C250.254 23.9038 250.173 23.3145 250.173 22.6836V22.335C250.173 21.7041 250.254 21.1175 250.414 20.5752C250.58 20.0273 250.824 19.5514 251.145 19.1475C251.465 18.738 251.864 18.4198 252.34 18.1929C252.816 17.966 253.366 17.8525 253.992 17.8525C254.634 17.8525 255.209 17.9826 255.718 18.2427C256.233 18.5028 256.642 18.8708 256.947 19.3467C257.257 19.8226 257.425 20.387 257.453 21.04H256.507C256.479 20.5586 256.352 20.1436 256.125 19.7949C255.898 19.4463 255.599 19.1779 255.229 18.9897C254.858 18.8016 254.445 18.7075 253.992 18.7075C253.483 18.7075 253.048 18.8071 252.688 19.0063C252.329 19.2 252.035 19.4684 251.809 19.8115C251.587 20.1491 251.424 20.5365 251.319 20.9736C251.214 21.4053 251.161 21.859 251.161 22.335V22.6836C251.161 23.165 251.211 23.6243 251.311 24.0615C251.416 24.4932 251.579 24.8778 251.8 25.2153C252.027 25.5529 252.32 25.8213 252.68 26.0205C253.045 26.2142 253.485 26.311 254 26.311ZM262.625 18.0186V27H261.637V18.0186H262.625ZM265.895 18.0186V18.8652H258.482V18.0186H265.895ZM272.868 25.3896V20.7578C272.868 20.3317 272.779 19.9637 272.602 19.6538C272.425 19.3439 272.165 19.106 271.822 18.9399C271.479 18.7739 271.055 18.6909 270.552 18.6909C270.087 18.6909 269.672 18.7739 269.307 18.9399C268.947 19.1004 268.662 19.319 268.452 19.5957C268.247 19.8669 268.145 20.1685 268.145 20.5005L267.148 20.4922C267.148 20.1546 267.231 19.8281 267.397 19.5127C267.563 19.1973 267.799 18.915 268.103 18.666C268.407 18.417 268.77 18.2205 269.19 18.0767C269.617 17.9272 270.084 17.8525 270.593 17.8525C271.235 17.8525 271.8 17.9604 272.287 18.1763C272.779 18.3921 273.164 18.7158 273.44 19.1475C273.717 19.5791 273.855 20.1214 273.855 20.7744V25.1157C273.855 25.4256 273.878 25.7466 273.922 26.0786C273.972 26.4106 274.041 26.6846 274.129 26.9004V27H273.075C273.009 26.8008 272.956 26.5518 272.917 26.2529C272.884 25.9486 272.868 25.6608 272.868 25.3896ZM273.1 21.7705L273.117 22.5342H271.166C270.657 22.5342 270.2 22.5812 269.796 22.6753C269.398 22.7638 269.06 22.8966 268.784 23.0737C268.507 23.2453 268.294 23.4528 268.145 23.6963C268.001 23.9398 267.929 24.2165 267.929 24.5264C267.929 24.8473 268.009 25.1406 268.169 25.4062C268.335 25.6719 268.568 25.8849 268.867 26.0454C269.171 26.2004 269.531 26.2778 269.946 26.2778C270.499 26.2778 270.986 26.1755 271.407 25.9707C271.833 25.766 272.184 25.4976 272.461 25.1655C272.738 24.8335 272.923 24.471 273.017 24.0781L273.449 24.6509C273.377 24.9276 273.244 25.2126 273.05 25.5059C272.862 25.7936 272.616 26.0648 272.312 26.3193C272.007 26.5684 271.647 26.7731 271.232 26.9336C270.823 27.0885 270.358 27.166 269.838 27.166C269.251 27.166 268.739 27.0553 268.302 26.834C267.871 26.6126 267.533 26.311 267.29 25.9292C267.052 25.5418 266.933 25.1047 266.933 24.6177C266.933 24.175 267.027 23.7793 267.215 23.4307C267.403 23.0765 267.674 22.7777 268.028 22.5342C268.388 22.2852 268.82 22.097 269.323 21.9697C269.832 21.8369 270.402 21.7705 271.033 21.7705H273.1ZM279.558 18.0186V27H278.57V18.0186H279.558ZM282.829 18.0186V18.8652H275.416V18.0186H282.829ZM283.576 22.6504V22.3765C283.576 21.7235 283.67 21.1203 283.858 20.5669C284.046 20.0135 284.314 19.5348 284.663 19.1309C285.017 18.7269 285.441 18.4142 285.933 18.1929C286.426 17.966 286.973 17.8525 287.577 17.8525C288.185 17.8525 288.736 17.966 289.229 18.1929C289.721 18.4142 290.144 18.7269 290.499 19.1309C290.853 19.5348 291.124 20.0135 291.312 20.5669C291.5 21.1203 291.594 21.7235 291.594 22.3765V22.6504C291.594 23.3034 291.5 23.9066 291.312 24.46C291.124 25.0078 290.853 25.4837 290.499 25.8877C290.15 26.2917 289.729 26.6071 289.237 26.834C288.744 27.0553 288.196 27.166 287.593 27.166C286.985 27.166 286.434 27.0553 285.941 26.834C285.449 26.6071 285.026 26.2917 284.671 25.8877C284.317 25.4837 284.046 25.0078 283.858 24.46C283.67 23.9066 283.576 23.3034 283.576 22.6504ZM284.563 22.3765V22.6504C284.563 23.1429 284.63 23.6105 284.763 24.0532C284.896 24.4904 285.089 24.8805 285.344 25.2236C285.598 25.5612 285.914 25.8268 286.29 26.0205C286.666 26.2142 287.101 26.311 287.593 26.311C288.08 26.311 288.509 26.2142 288.88 26.0205C289.256 25.8268 289.572 25.5612 289.826 25.2236C290.081 24.8805 290.272 24.4904 290.399 24.0532C290.532 23.6105 290.598 23.1429 290.598 22.6504V22.3765C290.598 21.8895 290.532 21.4274 290.399 20.9902C290.272 20.5531 290.078 20.1629 289.818 19.8198C289.563 19.4767 289.248 19.2056 288.872 19.0063C288.495 18.8071 288.064 18.7075 287.577 18.7075C287.09 18.7075 286.658 18.8071 286.282 19.0063C285.911 19.2056 285.596 19.4767 285.335 19.8198C285.081 20.1629 284.887 20.5531 284.754 20.9902C284.627 21.4274 284.563 21.8895 284.563 22.3765ZM294.707 18.0186V27H293.711V18.0186H294.707ZM300.617 18.0186L296.5 22.8828H294.358L294.25 21.9946H296.077L299.364 18.0186H300.617ZM299.721 27L295.977 22.75L296.608 21.9863L301.032 27H299.721ZM303.581 14.9141L303.522 23.6299H302.609L302.551 14.9141H303.581ZM302.443 26.4106C302.443 26.2225 302.501 26.0648 302.618 25.9375C302.739 25.8047 302.908 25.7383 303.124 25.7383C303.334 25.7383 303.5 25.8047 303.622 25.9375C303.749 26.0648 303.813 26.2225 303.813 26.4106C303.813 26.5933 303.749 26.751 303.622 26.8838C303.5 27.0111 303.334 27.0747 303.124 27.0747C302.908 27.0747 302.739 27.0111 302.618 26.8838C302.501 26.751 302.443 26.5933 302.443 26.4106Z" fill="#E63C24"/>
<path d="M46.8457 28.6602H144.967V29.4902H46.8457V28.6602ZM147.627 28.6602H305V29.4902H147.627V28.6602Z" fill="#E63C24"/>
<path d="M17.4019 4.5C18.5566 2.5 21.4434 2.5 22.5981 4.5L34.7224 25.5C35.8771 27.5 34.4338 30 32.1244 30H7.87565C5.56624 30 4.12287 27.5 5.27757 25.5L17.4019 4.5Z" fill="#E63C24"/>
<path d="M21.85 21.175H21.625C21.2417 21.175 20.8667 21.1167 20.5 21C20.1333 20.8833 19.8 20.7083 19.5 20.475C19.2 20.2417 18.9583 19.9417 18.775 19.575C18.5917 19.2083 18.5 18.775 18.5 18.275V8.2C18.95 8.2 19.375 8.275 19.775 8.425C20.175 8.55833 20.525 8.75833 20.825 9.025C21.1417 9.275 21.3917 9.58333 21.575 9.95C21.7583 10.3167 21.85 10.7333 21.85 11.2V21.175ZM18.6 25.35C18.6 24.8333 18.775 24.4 19.125 24.05C19.475 23.7 19.8917 23.525 20.375 23.525C20.8917 23.525 21.325 23.7 21.675 24.05C22.025 24.4 22.2 24.8333 22.2 25.35C22.2 25.8333 22.025 26.25 21.675 26.6C21.325 26.95 20.8917 27.125 20.375 27.125C19.8917 27.125 19.475 26.95 19.125 26.6C18.775 26.25 18.6 25.8333 18.6 25.35Z" fill="white"/>
</svg>
