<svg width="35" height="37" viewBox="0 0 35 37" fill="none" xmlns="http://www.w3.org/2000/svg">
<path d="M13.3367 2.32635C14.7995 1.88762 17.1542 1.47803 17.1542 1.47803C17.1542 1.47803 15.4149 3.42402 14.6092 4.87132C13.9956 5.97355 13.3367 7.84046 13.3367 7.84046L13.3178 7.91615C12.7696 10.1089 12.6322 12.3842 12.9126 14.627C13.1945 16.3185 13.6234 17.9942 14.4208 19.5124C14.6187 19.8891 14.8278 20.2563 15.0334 20.5653C15.75 21.6424 16.2522 22.1829 17.1542 23.1103C18.2189 24.2051 18.8273 24.8474 20.1233 25.6553C21.6373 26.599 22.63 26.9362 24.3649 27.3519C25.9838 27.7398 26.9423 27.8172 28.6065 27.7761C29.9416 27.7431 31.9998 27.3519 31.9998 27.3519L30.7273 29.0485C30.7273 29.0485 29.4941 30.4051 28.6065 31.1694C27.5268 32.0992 26.8714 32.5777 25.6374 33.2902C25.4767 33.3829 25.3018 33.477 25.1189 33.5706C23.2601 34.5217 21.2209 35.1292 19.1364 35.2501C18.224 35.303 17.7091 35.2934 16.7962 35.2501C15.7725 35.2016 14.185 34.9868 14.185 34.9868L12.4884 34.5627C12.4884 34.5627 10.3676 33.7143 9.09509 32.866C9.09509 32.866 7.46475 31.9376 6.55012 31.1694C6.55012 31.1694 5.43957 30.2038 4.85347 29.4727C4.01816 28.4307 3.15683 26.9277 3.15683 26.9277L2.46699 25.5481C2.07939 24.7729 1.76452 23.9634 1.52642 23.1301C1.2008 21.9904 1.01658 20.814 1.00391 19.6288C1.00151 19.4039 1 19.1816 1 18.978C1 17.9842 1 17.478 1.03602 16.3237C1.06744 15.3166 1.46018 13.7787 1.46018 13.7787C2.02322 12.0896 2.80893 10.4831 3.79656 9.00166L4.00515 8.68878C4.85008 7.5622 5.83408 6.54698 6.93371 5.66727L7.39845 5.29548C9.09141 4.16684 10.8693 3.15039 12.797 2.49933C12.9841 2.43614 13.1658 2.3776 13.3367 2.32635Z" stroke="#C2D5FF" stroke-width="2"/>
<path d="M25.9381 8.44716L23.6288 7.78735L22.969 5.47803L22.3092 7.78735L19.9999 8.44716L22.3092 9.10697L22.969 11.4163L23.6288 9.10697L25.9381 8.44716Z" fill="#C2D5FF" stroke="#C2D5FF"/>
<path d="M30.9999 13.978L29.8332 13.6447L29.4999 12.478L29.1665 13.6447L27.9999 13.978L29.1665 14.3114L29.4999 15.478L29.8332 14.3114L30.9999 13.978Z" fill="#C2D5FF" stroke="#C2D5FF"/>
</svg>
