<svg width="33" height="38" viewBox="0 0 33 38" fill="none" xmlns="http://www.w3.org/2000/svg">
<path d="M18.3929 5.25L18.5002 5.27003C20.1947 5.58635 21.8021 6.26144 23.2143 7.25L24.3684 8.32717C25.0231 8.93823 25.5729 9.65277 25.9958 10.4422C26.6316 11.629 26.9643 12.9545 26.9643 14.3009V23.6255C26.9643 24.0355 27.0656 24.4391 27.2592 24.8005C27.4181 25.0971 27.6355 25.3584 27.8982 25.5685L30.6349 27.7579C31.0237 28.0689 31.25 28.5398 31.25 29.0378C31.25 29.4921 31.0614 29.926 30.7293 30.236L30.6882 30.2744C30.3607 30.58 29.9294 30.75 29.4815 30.75H3.01851C2.57056 30.75 2.1393 30.58 1.81182 30.2744L1.77069 30.236C1.43856 29.926 1.25 29.4921 1.25 29.0378C1.25 28.5398 1.47633 28.0689 1.86514 27.7579L4.60182 25.5685C4.86454 25.3584 5.08192 25.0971 5.24079 24.8005C5.43441 24.4391 5.53571 24.0355 5.53571 23.6255V14.3009C5.53571 12.9545 5.8684 11.629 6.50418 10.4422C6.92709 9.65277 7.47689 8.93823 8.1316 8.32717L9.28571 7.25L9.47967 7.11423C10.7654 6.21419 12.2211 5.58561 13.7579 5.26687L14.0954 5.19687C15.5148 4.90249 16.9812 4.92062 18.3929 5.25ZM18.3929 5.25V3.45739C18.3929 2.99732 18.2491 2.54875 17.9817 2.17437L17.9221 2.09091C17.5451 1.56319 16.9365 1.25 16.288 1.25C15.913 1.25 15.5455 1.355 15.2271 1.55311L15.1685 1.58962C14.5084 2.00031 14.1071 2.72262 14.1071 3.5V5.19444" stroke="#C2D5FF" stroke-width="2.5"/>
<path d="M20.536 33.25C20.536 35.4592 18.6172 37.25 16.2503 37.25C13.8834 37.25 11.9646 35.4592 11.9646 33.25C16.4559 33.25 11.9646 33.25 16.4559 33.25C20.2059 33.2501 16.4559 33.25 20.536 33.25Z" fill="#C2D5FF"/>
</svg>
