<svg width="26" height="26" viewBox="0 0 26 26" fill="none" xmlns="http://www.w3.org/2000/svg">
<path d="M0.585786 22.5858C-0.195262 23.3668 -0.195262 24.6332 0.585786 25.4142C1.36683 26.1953 2.63317 26.1953 3.41421 25.4142L2 24L0.585786 22.5858ZM2 24C3.41421 25.4142 3.41423 25.4142 3.41426 25.4142C3.41428 25.4141 3.41432 25.4141 3.41438 25.414C3.41447 25.414 3.41468 25.4138 3.41488 25.4135C3.41667 25.4118 3.41382 25.4146 3.41571 25.4127C3.41588 25.4125 3.41606 25.4124 3.41625 25.4122C3.41645 25.412 3.41665 25.4118 3.41687 25.4116C3.43358 25.3949 3.40634 25.4221 3.42478 25.4037C3.43319 25.3952 3.42182 25.4066 3.43066 25.3978C3.44601 25.3824 3.42203 25.4064 3.43781 25.3906C3.45261 25.3758 3.43099 25.3974 3.44621 25.3822C3.44882 25.3796 3.44816 25.3803 3.45088 25.3775C3.45299 25.3754 3.45364 25.3748 3.45585 25.3726C3.46269 25.3657 3.49332 25.3351 3.50654 25.3219C3.5232 25.3052 3.52075 25.3077 3.53895 25.2895C3.5404 25.288 3.54185 25.2866 3.54332 25.2851C3.54479 25.2836 3.54628 25.2822 3.54777 25.2807C3.56325 25.2652 3.54129 25.2871 3.55687 25.2716C3.57742 25.251 3.555 25.2734 3.57592 25.2525C3.59065 25.2378 3.58098 25.2474 3.59608 25.2323C3.61473 25.2137 3.59833 25.2301 3.61734 25.2111C3.62166 25.2068 3.62396 25.2045 3.62837 25.2001C3.63071 25.1977 3.63725 25.1912 3.63968 25.1887C3.64829 25.1801 3.65412 25.1743 3.66309 25.1653C3.73609 25.0923 3.68866 25.1398 3.76713 25.0613C3.80692 25.0215 3.84219 24.9862 3.88714 24.9413C3.95773 24.8707 3.88103 24.9474 3.95285 24.8756C3.9768 24.8516 3.99707 24.8314 4.02221 24.8062C4.11754 24.7109 3.9447 24.8837 4.04011 24.7883C4.07211 24.7563 4.02614 24.8023 4.05822 24.7702C4.08446 24.744 4.06858 24.7599 4.0951 24.7333C4.12168 24.7068 4.14373 24.6847 4.17142 24.657C4.22643 24.602 4.2746 24.5538 4.33387 24.4946C4.35274 24.4757 4.33612 24.4923 4.35506 24.4734C4.35861 24.4698 4.36216 24.4663 4.36573 24.4627C4.36929 24.4591 4.37286 24.4556 4.37644 24.452C4.38408 24.4443 4.39031 24.4381 4.39801 24.4304C4.40162 24.4268 4.40524 24.4232 4.40887 24.4196C4.41249 24.4159 4.41613 24.4123 4.41977 24.4087C4.47159 24.3568 4.45585 24.3726 4.50864 24.3198C4.52203 24.3064 4.54053 24.2879 4.55415 24.2743C4.56437 24.2641 4.5669 24.2615 4.57717 24.2513C4.58102 24.2474 4.58488 24.2435 4.58875 24.2397C4.59261 24.2358 4.59649 24.2319 4.60037 24.2281C4.64198 24.1865 4.60542 24.223 4.64726 24.1812C4.66845 24.16 4.64972 24.1787 4.67096 24.1575C4.67493 24.1535 4.6789 24.1495 4.68288 24.1456C4.68685 24.1416 4.69084 24.1376 4.69483 24.1336C4.78006 24.0484 4.6576 24.1708 4.74305 24.0854C4.7471 24.0813 4.75115 24.0773 4.75521 24.0732C4.75927 24.0692 4.76334 24.0651 4.76741 24.061C4.7947 24.0337 4.76457 24.0639 4.79192 24.0365C4.84669 23.9817 4.78643 24.042 4.84141 23.987C4.84556 23.9829 4.84972 23.9787 4.85388 23.9745C4.85805 23.9704 4.86222 23.9662 4.86639 23.962C4.88874 23.9397 4.86913 23.9593 4.89152 23.9369C4.9139 23.9145 4.89438 23.934 4.9168 23.9116C4.92103 23.9074 4.92526 23.9032 4.9295 23.8989C4.93374 23.8947 4.93798 23.8904 4.94223 23.8862C4.95354 23.8749 4.98202 23.8464 4.99353 23.8349C5.10442 23.724 4.98618 23.8423 5.09781 23.7306C5.14492 23.6835 5.10349 23.7249 5.15078 23.6777C5.18631 23.6421 5.16856 23.6599 5.20427 23.6242C5.25203 23.5764 5.18341 23.645 5.23121 23.5972C5.23521 23.5932 5.25424 23.5742 5.25828 23.5701C5.30671 23.5217 5.26419 23.5642 5.31279 23.5156C5.44372 23.3847 5.29168 23.5367 5.42324 23.4052C5.52216 23.3063 5.43603 23.3924 5.53553 23.2929C5.54025 23.2882 5.54497 23.2835 5.54969 23.2787C5.55442 23.274 5.55915 23.2693 5.56388 23.2645C5.56861 23.2598 5.57335 23.2551 5.57809 23.2503C5.58283 23.2456 5.58758 23.2408 5.59233 23.2361C5.59708 23.2313 5.60183 23.2266 5.60659 23.2218C5.61135 23.2171 5.61612 23.2123 5.62088 23.2075C5.62565 23.2028 5.63042 23.198 5.6352 23.1932C5.63997 23.1885 5.64475 23.1837 5.64954 23.1789C5.65432 23.1741 5.65911 23.1693 5.66391 23.1645C5.6687 23.1597 5.67349 23.1549 5.6783 23.1501C5.6831 23.1453 5.6879 23.1405 5.69271 23.1357C5.69752 23.1309 5.70233 23.1261 5.70715 23.1213C5.71197 23.1165 5.71679 23.1116 5.72161 23.1068C5.72644 23.102 5.73127 23.0972 5.7361 23.0923C5.74093 23.0875 5.74577 23.0827 5.75061 23.0778C5.75545 23.073 5.7603 23.0681 5.76515 23.0633C5.77 23.0584 5.77485 23.0536 5.77971 23.0487C5.78456 23.0439 5.78942 23.039 5.79429 23.0341C5.79915 23.0293 5.80402 23.0244 5.80889 23.0195C5.81376 23.0147 5.81864 23.0098 5.82352 23.0049C5.8284 23 5.83328 22.9951 5.83817 22.9903C5.84305 22.9854 5.84794 22.9805 5.85284 22.9756C5.85773 22.9707 5.86263 22.9658 5.86753 22.9609C5.87243 22.956 5.87734 22.9511 5.88224 22.9462C5.88715 22.9413 5.89206 22.9364 5.89698 22.9314C5.9019 22.9265 5.90681 22.9216 5.91174 22.9167C5.91666 22.9118 5.92159 22.9068 5.92652 22.9019C5.93144 22.897 5.93638 22.892 5.94131 22.8871C5.94625 22.8822 5.95119 22.8772 5.95613 22.8723C5.96108 22.8673 5.96602 22.8624 5.97097 22.8575C5.97592 22.8525 5.98088 22.8475 5.98583 22.8426C5.99079 22.8376 5.99575 22.8327 6.00071 22.8277C6.00568 22.8227 6.01064 22.8178 6.01561 22.8128C6.02058 22.8078 6.02556 22.8029 6.03053 22.7979C6.03551 22.7929 6.04049 22.7879 6.04547 22.783C6.05046 22.778 6.05544 22.773 6.06043 22.768C6.06542 22.763 6.07041 22.758 6.07541 22.753C6.0804 22.748 6.0854 22.743 6.0904 22.738C6.0954 22.733 6.10041 22.728 6.10542 22.723C6.11042 22.718 6.11543 22.713 6.12045 22.708C6.12546 22.703 6.13048 22.6979 6.1355 22.6929C6.14052 22.6879 6.14554 22.6829 6.15056 22.6779C6.15559 22.6728 6.16062 22.6678 6.16565 22.6628C6.17068 22.6577 6.17571 22.6527 6.18075 22.6477C6.18579 22.6426 6.19083 22.6376 6.19587 22.6326C6.20091 22.6275 6.20596 22.6225 6.21101 22.6174C6.21605 22.6124 6.2211 22.6073 6.22616 22.6023C6.23121 22.5972 6.23627 22.5922 6.24133 22.5871C6.24639 22.582 6.25145 22.577 6.25651 22.5719C6.26158 22.5669 6.26664 22.5618 6.27171 22.5567C6.27678 22.5516 6.28185 22.5466 6.28693 22.5415C6.292 22.5364 6.29708 22.5313 6.30216 22.5263C6.30724 22.5212 6.31232 22.5161 6.31741 22.511C6.32249 22.5059 6.32758 22.5008 6.33267 22.4958C6.33776 22.4907 6.34285 22.4856 6.34795 22.4805C6.35304 22.4754 6.35814 22.4703 6.36324 22.4652C6.36834 22.4601 6.37344 22.455 6.37855 22.4499C6.38365 22.4448 6.38876 22.4397 6.39387 22.4346C6.39898 22.4295 6.40409 22.4243 6.4092 22.4192C6.41431 22.4141 6.41943 22.409 6.42455 22.4039C6.42967 22.3988 6.43479 22.3936 6.43991 22.3885C6.44503 22.3834 6.45016 22.3783 6.45529 22.3731C6.46041 22.368 6.46554 22.3629 6.47067 22.3578C6.4758 22.3526 6.48094 22.3475 6.48607 22.3424C6.49121 22.3372 6.49635 22.3321 6.50149 22.3269C6.50663 22.3218 6.51177 22.3167 6.51691 22.3115C6.52206 22.3064 6.5272 22.3012 6.53235 22.2961C6.5375 22.2909 6.54265 22.2858 6.5478 22.2806C6.55295 22.2755 6.5581 22.2703 6.56326 22.2652C6.56842 22.26 6.57357 22.2549 6.57873 22.2497C6.58389 22.2445 6.58905 22.2394 6.59422 22.2342C6.59938 22.229 6.60455 22.2239 6.60971 22.2187C6.61488 22.2135 6.62005 22.2084 6.62522 22.2032C6.63039 22.198 6.63556 22.1929 6.64074 22.1877C6.64591 22.1825 6.65108 22.1773 6.65626 22.1722C6.66144 22.167 6.66662 22.1618 6.6718 22.1566C6.67698 22.1514 6.68216 22.1463 6.68735 22.1411C6.69253 22.1359 6.69772 22.1307 6.7029 22.1255C6.70809 22.1203 6.71328 22.1151 6.71847 22.11C6.72366 22.1048 6.72885 22.0996 6.73404 22.0944C6.73924 22.0892 6.74443 22.084 6.74963 22.0788C6.75482 22.0736 6.76002 22.0684 6.76522 22.0632C6.77042 22.058 6.77562 22.0528 6.78082 22.0476C6.78603 22.0424 6.79123 22.0372 6.79643 22.032C6.80164 22.0268 6.80684 22.0216 6.81205 22.0164C6.81726 22.0112 6.82247 22.006 6.82768 22.0007C6.83289 21.9955 6.8381 21.9903 6.84331 21.9851C6.84853 21.9799 6.85374 21.9747 6.85895 21.9695C6.86417 21.9643 6.86939 21.959 6.8746 21.9538C6.87982 21.9486 6.88504 21.9434 6.89026 21.9382C6.89548 21.9329 6.9007 21.9277 6.90592 21.9225C6.91114 21.9173 6.91637 21.9121 6.92159 21.9068C6.92681 21.9016 6.93204 21.8964 6.93727 21.8912C6.94249 21.8859 6.94772 21.8807 6.95295 21.8755C6.95818 21.8703 6.96341 21.865 6.96864 21.8598C6.97387 21.8546 6.9791 21.8493 6.98433 21.8441C6.98956 21.8389 6.99479 21.8336 7.00003 21.8284C7.00526 21.8232 7.0105 21.8179 7.01573 21.8127C7.02097 21.8075 7.0262 21.8022 7.03144 21.797C7.03668 21.7917 7.04192 21.7865 7.04715 21.7813C7.05239 21.776 7.05763 21.7708 7.06287 21.7656C7.06811 21.7603 7.07335 21.7551 7.0786 21.7498C7.08384 21.7446 7.08908 21.7393 7.09432 21.7341C7.09957 21.7289 7.10481 21.7236 7.11005 21.7184C7.1153 21.7131 7.12054 21.7079 7.12579 21.7026C7.13103 21.6974 7.13628 21.6921 7.14153 21.6869C7.14677 21.6817 7.15202 21.6764 7.15727 21.6712C7.16252 21.6659 7.16776 21.6607 7.17301 21.6554C7.17826 21.6502 7.18351 21.6449 7.18876 21.6397C7.19401 21.6344 7.19926 21.6292 7.20451 21.6239C7.20976 21.6187 7.21501 21.6134 7.22026 21.6082C7.22551 21.6029 7.23077 21.5977 7.23602 21.5924C7.24127 21.5872 7.24652 21.5819 7.25177 21.5767C7.25703 21.5714 7.26228 21.5661 7.26753 21.5609C7.27278 21.5556 7.27804 21.5504 7.28329 21.5451C7.28854 21.5399 7.2938 21.5346 7.29905 21.5294C7.30431 21.5241 7.30956 21.5189 7.31481 21.5136C7.32007 21.5084 7.32532 21.5031 7.33058 21.4979C7.33583 21.4926 7.34108 21.4873 7.34634 21.4821C7.35159 21.4768 7.35685 21.4716 7.3621 21.4663C7.44604 21.3824 7.34122 21.4872 7.42516 21.4033C7.4811 21.3473 7.43227 21.3962 7.4882 21.3402C7.50225 21.3262 7.50566 21.3228 7.51971 21.3087C7.60353 21.2249 7.4674 21.361 7.55122 21.2772C7.55647 21.272 7.56171 21.2667 7.56696 21.2615C7.57221 21.2562 7.57746 21.251 7.58271 21.2457C7.6391 21.1893 7.5578 21.2706 7.61419 21.2142C7.61944 21.209 7.62468 21.2037 7.62993 21.1985C7.63517 21.1933 7.64042 21.188 7.64566 21.1828C7.67358 21.1548 7.64919 21.1792 7.67711 21.1513C7.78721 21.0412 7.62989 21.1985 7.73996 21.0885C7.81465 21.0138 7.91631 20.9121 7.9904 20.838C8.01811 20.8103 7.99388 20.8345 8.02157 20.8069C8.02676 20.8017 8.03195 20.7965 8.03714 20.7913C8.04233 20.7861 8.04751 20.7809 8.0527 20.7757C8.05789 20.7705 8.06307 20.7654 8.06825 20.7602C8.07343 20.755 8.07861 20.7498 8.08379 20.7446C8.08897 20.7395 8.09415 20.7343 8.09932 20.7291C8.1045 20.7239 8.10967 20.7188 8.11484 20.7136C8.13694 20.6915 8.15477 20.6737 8.17682 20.6516C8.20983 20.6186 8.20565 20.6228 8.23861 20.5898C8.24375 20.5847 8.24889 20.5795 8.25402 20.5744C8.25916 20.5693 8.2643 20.5641 8.26943 20.559C8.29681 20.5316 8.27284 20.5556 8.3002 20.5282C8.3184 20.51 8.34346 20.485 8.36158 20.4668C8.43925 20.3892 8.34516 20.4833 8.42274 20.4057C8.46614 20.3623 8.40986 20.4186 8.45323 20.3752C8.4803 20.3481 8.45662 20.3718 8.48366 20.3448C8.52677 20.3017 8.56197 20.2665 8.60473 20.2237C8.71165 20.1168 8.52791 20.3005 8.63482 20.1936C8.63983 20.1886 8.64484 20.1836 8.64984 20.1786C8.65484 20.1736 8.65984 20.1686 8.66484 20.1636C8.70482 20.1236 8.65483 20.1736 8.69479 20.1336C8.69977 20.1287 8.70476 20.1237 8.70973 20.1187C8.71471 20.1137 8.71969 20.1087 8.72466 20.1038C8.76002 20.0684 8.74891 20.0795 8.78417 20.0443C8.83689 19.9915 8.76112 20.0673 8.8138 20.0146C8.81874 20.0097 8.82366 20.0048 8.82859 19.9998C8.83351 19.9949 8.83844 19.99 8.84335 19.9851C8.84827 19.9802 8.85319 19.9752 8.8581 19.9703C8.86301 19.9654 8.86792 19.9605 8.87282 19.9556C8.87772 19.9507 8.88262 19.9458 8.88752 19.9409C8.89242 19.936 8.89731 19.9311 8.9022 19.9262C8.93206 19.8964 8.93095 19.8975 8.96069 19.8677C8.98658 19.8418 8.96394 19.8645 8.9898 19.8386C8.99465 19.8338 8.99949 19.8289 9.00432 19.8241C9.00916 19.8193 9.01399 19.8144 9.01882 19.8096C9.0317 19.7967 9.03489 19.7935 9.04774 19.7807C9.05255 19.7759 9.05736 19.7711 9.06216 19.7663C9.06697 19.7615 9.07177 19.7567 9.07656 19.7519C9.1109 19.7175 9.07098 19.7574 9.10529 19.7231C9.13076 19.6977 9.10847 19.72 9.13391 19.6945C9.13957 19.6889 9.15681 19.6716 9.16243 19.666C9.23826 19.5902 9.11506 19.7134 9.19085 19.6376C9.28418 19.5443 9.21069 19.6177 9.30344 19.525C9.31782 19.5106 9.31696 19.5115 9.3313 19.4971C9.33594 19.4925 9.34057 19.4879 9.3452 19.4832C9.34982 19.4786 9.35444 19.474 9.35906 19.4694C9.44558 19.3828 9.32785 19.5006 9.41421 19.4142L8 18L6.58579 16.5858C6.57633 16.5952 6.54025 16.6313 6.53063 16.6409C6.48552 16.6861 6.52027 16.6513 6.47501 16.6966C6.34497 16.8266 6.49304 16.6785 6.36242 16.8092C6.33011 16.8415 6.33793 16.8336 6.30548 16.8661C6.29703 16.8745 6.28535 16.8862 6.27686 16.8947C6.27208 16.8995 6.2673 16.9043 6.26251 16.9091C6.25772 16.9139 6.25293 16.9186 6.24813 16.9234C6.23351 16.9381 6.23397 16.9376 6.21931 16.9523C6.2145 16.9571 6.20968 16.9619 6.20486 16.9667C6.20004 16.9715 6.19522 16.9764 6.19039 16.9812C6.16614 17.0054 6.18566 16.9859 6.16137 17.0102C6.15653 17.015 6.15168 17.0199 6.14683 17.0247C6.14198 17.0296 6.13712 17.0344 6.13227 17.0393C6.02848 17.1431 6.00183 17.1697 5.89623 17.2753C5.87303 17.2985 5.85972 17.3119 5.83641 17.3352C5.8097 17.3619 5.80311 17.3685 5.7763 17.3953C5.7763 17.3953 5.65559 17.516 5.65524 17.5163C5.54734 17.6242 5.64137 17.5302 5.53316 17.6384C5.45141 17.7202 5.5536 17.618 5.47177 17.6998C5.46665 17.7049 5.46152 17.7101 5.45639 17.7152C5.45127 17.7203 5.44614 17.7254 5.441 17.7306C5.42729 17.7443 5.42391 17.7477 5.41018 17.7614C5.40472 17.7669 5.35391 17.8177 5.34839 17.8232C5.31402 17.8576 5.35181 17.8198 5.31742 17.8541C5.31054 17.861 5.29331 17.8783 5.28641 17.8852C5.28124 17.8903 5.27607 17.8955 5.27089 17.9007C5.26572 17.9059 5.26054 17.911 5.25536 17.9162C5.25019 17.9214 5.24501 17.9266 5.23982 17.9317C5.23464 17.9369 5.22946 17.9421 5.22427 17.9473C5.1687 18.0029 5.2176 17.954 5.16198 18.0096C5.10652 18.0651 5.15504 18.0165 5.09954 18.072C5.01611 18.1555 5.15171 18.0199 5.06828 18.1033C4.99935 18.1722 5.10592 18.0657 5.03698 18.1346C5.03176 18.1398 5.02654 18.145 5.02132 18.1503C5.0161 18.1555 5.01088 18.1607 5.00566 18.1659C5.00043 18.1711 4.99521 18.1764 4.98999 18.1816C4.98476 18.1868 4.97953 18.192 4.97431 18.1973C4.8645 18.3071 5.02138 18.1502 4.91154 18.26C4.8565 18.3151 4.90375 18.2678 4.84869 18.3229C4.81143 18.3601 4.82304 18.3485 4.78576 18.3858C4.78052 18.3911 4.77527 18.3963 4.77002 18.4015C4.76478 18.4068 4.75953 18.412 4.75428 18.4173C4.73323 18.4383 4.74384 18.4277 4.72279 18.4488C4.66631 18.5053 4.71626 18.4553 4.65977 18.5118C4.65452 18.5171 4.64927 18.5223 4.64401 18.5276C4.63876 18.5328 4.63351 18.5381 4.62825 18.5433C4.623 18.5486 4.61775 18.5538 4.61249 18.5591C4.60724 18.5643 4.60198 18.5696 4.59673 18.5748C4.5743 18.5973 4.58763 18.5839 4.5652 18.6064C4.55995 18.6116 4.55469 18.6169 4.54944 18.6221C4.54419 18.6274 4.53893 18.6326 4.53368 18.6379C4.52842 18.6432 4.52317 18.6484 4.51791 18.6537C4.51266 18.6589 4.5074 18.6642 4.50215 18.6694C4.49689 18.6747 4.49164 18.6799 4.48639 18.6852C4.48113 18.6904 4.47588 18.6957 4.47062 18.7009C4.46537 18.7062 4.46012 18.7115 4.45486 18.7167C4.44961 18.722 4.44436 18.7272 4.4391 18.7325C4.43385 18.7377 4.4286 18.743 4.42335 18.7482C4.41809 18.7535 4.41284 18.7587 4.40759 18.764C4.40234 18.7692 4.39709 18.7745 4.39184 18.7797C4.38658 18.785 4.38133 18.7902 4.37608 18.7955C4.37083 18.8007 4.36558 18.806 4.36033 18.8112C4.35508 18.8165 4.34983 18.8217 4.34459 18.827C4.33934 18.8322 4.33409 18.8375 4.32884 18.8427C4.32359 18.848 4.31835 18.8532 4.3131 18.8585C4.30785 18.8637 4.30261 18.869 4.29736 18.8742C4.29212 18.8795 4.28687 18.8847 4.28163 18.8899C4.27638 18.8952 4.27114 18.9004 4.2659 18.9057C4.26065 18.9109 4.25541 18.9162 4.25017 18.9214C4.24493 18.9266 4.23969 18.9319 4.23445 18.9371C4.22921 18.9424 4.22397 18.9476 4.21873 18.9528C4.21349 18.9581 4.20825 18.9633 4.20301 18.9686C4.19778 18.9738 4.19254 18.979 4.1873 18.9843C4.18207 18.9895 4.17683 18.9947 4.1716 19C4.16637 19.0052 4.16113 19.0104 4.1559 19.0157C4.15067 19.0209 4.14544 19.0261 4.14021 19.0314C4.13498 19.0366 4.12975 19.0418 4.12452 19.0471C4.11929 19.0523 4.11406 19.0575 4.10884 19.0627C4.10361 19.068 4.09839 19.0732 4.09316 19.0784C4.08794 19.0836 4.08272 19.0889 4.07749 19.0941C4.07227 19.0993 4.06705 19.1045 4.06183 19.1097C4.05661 19.115 4.05139 19.1202 4.04618 19.1254C4.04096 19.1306 4.03574 19.1358 4.03053 19.141C4.02531 19.1463 4.0201 19.1515 4.01489 19.1567C4.00967 19.1619 4.00446 19.1671 3.99925 19.1723C3.99404 19.1775 3.98883 19.1827 3.98363 19.1879C3.97842 19.1932 3.97321 19.1984 3.96801 19.2036C3.9628 19.2088 3.9576 19.214 3.9524 19.2192C3.94719 19.2244 3.94199 19.2296 3.93679 19.2348C3.9316 19.24 3.9264 19.2452 3.9212 19.2504C3.91601 19.2556 3.91081 19.2608 3.90562 19.266C3.90042 19.2711 3.89523 19.2763 3.89004 19.2815C3.88485 19.2867 3.87966 19.2919 3.87448 19.2971C3.86929 19.3023 3.8641 19.3075 3.85892 19.3127C3.85373 19.3178 3.84855 19.323 3.84337 19.3282C3.83819 19.3334 3.83301 19.3386 3.82783 19.3437C3.82266 19.3489 3.81748 19.3541 3.81231 19.3593C3.80713 19.3644 3.80196 19.3696 3.79679 19.3748C3.79162 19.38 3.78645 19.3851 3.78129 19.3903C3.77612 19.3955 3.77095 19.4006 3.76579 19.4058C3.76063 19.4109 3.75547 19.4161 3.75031 19.4213C3.74515 19.4264 3.73999 19.4316 3.73483 19.4367C3.72968 19.4419 3.72452 19.447 3.71937 19.4522C3.71422 19.4574 3.70907 19.4625 3.70392 19.4677C3.69877 19.4728 3.69363 19.4779 3.68849 19.4831C3.68334 19.4882 3.6782 19.4934 3.67306 19.4985C3.66792 19.5037 3.66278 19.5088 3.65765 19.5139C3.65251 19.5191 3.64738 19.5242 3.64225 19.5293C3.63711 19.5345 3.63199 19.5396 3.62686 19.5447C3.62173 19.5498 3.61661 19.555 3.61148 19.5601C3.60636 19.5652 3.60124 19.5703 3.59612 19.5755C3.591 19.5806 3.58589 19.5857 3.58077 19.5908C3.57566 19.5959 3.57055 19.601 3.56544 19.6061C3.56033 19.6112 3.55522 19.6163 3.55012 19.6215C3.54501 19.6266 3.53991 19.6317 3.53481 19.6368C3.52971 19.6419 3.52462 19.647 3.51952 19.6521C3.51443 19.6571 3.50933 19.6622 3.50424 19.6673C3.49915 19.6724 3.49407 19.6775 3.48898 19.6826C3.4839 19.6877 3.47881 19.6928 3.47373 19.6978C3.46865 19.7029 3.46358 19.708 3.4585 19.7131C3.45343 19.7181 3.44836 19.7232 3.44329 19.7283C3.43822 19.7334 3.43315 19.7384 3.42808 19.7435C3.42302 19.7486 3.41796 19.7536 3.4129 19.7587C3.40784 19.7637 3.40278 19.7688 3.39773 19.7738C3.39268 19.7789 3.38763 19.7839 3.38258 19.789C3.37753 19.794 3.37249 19.7991 3.36744 19.8041C3.3624 19.8092 3.35736 19.8142 3.35232 19.8192C3.34729 19.8243 3.34225 19.8293 3.33722 19.8344C3.33219 19.8394 3.32716 19.8444 3.32214 19.8494C3.31711 19.8545 3.31209 19.8595 3.30707 19.8645C3.30205 19.8695 3.29703 19.8745 3.29202 19.8796C3.28701 19.8846 3.282 19.8896 3.27699 19.8946C3.27198 19.8996 3.26698 19.9046 3.26198 19.9096C3.25697 19.9146 3.25198 19.9196 3.24698 19.9246C3.24198 19.9296 3.23699 19.9346 3.232 19.9396C3.22701 19.9446 3.22203 19.9495 3.21705 19.9545C3.21206 19.9595 3.20708 19.9645 3.20211 19.9695C3.19713 19.9744 3.19216 19.9794 3.18719 19.9844C3.18222 19.9894 3.17725 19.9943 3.17229 19.9993C3.16732 20.0042 3.16236 20.0092 3.15741 20.0142C3.15245 20.0191 3.1475 20.0241 3.14255 20.029C3.1376 20.034 3.13265 20.0389 3.12771 20.0439C3.12276 20.0488 3.11782 20.0537 3.11289 20.0587C3.10795 20.0636 3.10302 20.0686 3.09809 20.0735C3.09316 20.0784 3.08823 20.0833 3.08331 20.0883C3.07839 20.0932 3.07347 20.0981 3.06855 20.103C3.06364 20.1079 3.05872 20.1128 3.05382 20.1178C3.04891 20.1227 3.044 20.1276 3.0391 20.1325C3.0342 20.1374 3.0293 20.1423 3.02441 20.1472C3.01952 20.1521 3.01462 20.1569 3.00974 20.1618C3.00485 20.1667 2.99997 20.1716 2.99509 20.1765C2.99021 20.1814 2.98533 20.1862 2.98046 20.1911C2.97559 20.196 2.97072 20.2009 2.96586 20.2057C2.96099 20.2106 2.95613 20.2154 2.95128 20.2203C2.94642 20.2252 2.94157 20.23 2.93672 20.2349C2.93187 20.2397 2.92703 20.2445 2.92219 20.2494C2.91734 20.2542 2.91251 20.2591 2.90767 20.2639C2.90284 20.2687 2.89801 20.2736 2.89319 20.2784C2.88836 20.2832 2.88354 20.288 2.87872 20.2929C2.87391 20.2977 2.86909 20.3025 2.86428 20.3073C2.85947 20.3121 2.85467 20.3169 2.84987 20.3217C2.84507 20.3265 2.84027 20.3313 2.83548 20.3361C2.83069 20.3409 2.8259 20.3457 2.82111 20.3505C2.81633 20.3552 2.81155 20.36 2.80677 20.3648C2.802 20.3696 2.79722 20.3743 2.79246 20.3791C2.78769 20.3839 2.78293 20.3886 2.77817 20.3934C2.77341 20.3982 2.76865 20.4029 2.7639 20.4077C2.75915 20.4124 2.75441 20.4172 2.74966 20.4219C2.74492 20.4267 2.74018 20.4314 2.73545 20.4361C2.73072 20.4409 2.72599 20.4456 2.72127 20.4503C2.71654 20.455 2.71182 20.4598 2.70711 20.4645C2.70239 20.4692 2.69768 20.4739 2.69297 20.4786C2.68827 20.4833 2.68357 20.488 2.67887 20.4927C2.67417 20.4974 2.66948 20.5021 2.66479 20.5068C2.6601 20.5115 2.65542 20.5162 2.65074 20.5208C2.63826 20.5333 2.60715 20.5644 2.59482 20.5768C2.46326 20.7083 2.61529 20.5563 2.48436 20.6872C2.33911 20.8325 2.52043 20.6511 2.37584 20.7957C2.26598 20.9056 2.37854 20.793 2.26938 20.9022C2.18558 20.986 2.24816 20.9234 2.1651 21.0065C2.11957 21.052 2.10784 21.0637 2.0631 21.1085C2.00151 21.1701 2.0995 21.0721 2.03797 21.1336C2.03379 21.1378 2.02962 21.142 2.02546 21.1461C2.02129 21.1503 2.01714 21.1544 2.01299 21.1586C1.98542 21.1862 1.99085 21.1807 1.96349 21.2081C1.87656 21.295 1.95248 21.2191 1.8664 21.3052C1.86241 21.3092 1.85843 21.3131 1.85445 21.3171C1.85047 21.3211 1.8465 21.3251 1.84254 21.329C1.83194 21.3396 1.82937 21.3422 1.81883 21.3527C1.80316 21.3684 1.81092 21.3607 1.7953 21.3763C1.7488 21.4228 1.81838 21.3532 1.77194 21.3996C1.76164 21.4099 1.73579 21.4358 1.72573 21.4458C1.7219 21.4497 1.71809 21.4535 1.71428 21.4573C1.71047 21.4611 1.70667 21.4649 1.70288 21.4687C1.69909 21.4725 1.6953 21.4763 1.69153 21.48C1.68775 21.4838 1.68398 21.4876 1.68021 21.4914C1.66354 21.508 1.65185 21.5197 1.63541 21.5362C1.63171 21.5399 1.62802 21.5436 1.62433 21.5472C1.62064 21.5509 1.61696 21.5546 1.61329 21.5583C1.55471 21.6169 1.64986 21.5217 1.59134 21.5802C1.59015 21.5814 1.50563 21.6659 1.50544 21.6661C1.40905 21.7625 1.51796 21.6536 1.42262 21.749C1.41921 21.7524 1.40575 21.7658 1.40241 21.7692C1.39906 21.7725 1.39571 21.7759 1.39238 21.7792C1.38904 21.7825 1.38572 21.7859 1.3824 21.7892C1.37908 21.7925 1.37577 21.7958 1.37247 21.7991C1.36917 21.8024 1.36588 21.8057 1.36259 21.809C1.35931 21.8123 1.35603 21.8155 1.35277 21.8188C1.3495 21.8221 1.34624 21.8253 1.34299 21.8286C1.28818 21.8834 1.32037 21.8512 1.26668 21.9049C1.25673 21.9148 1.23945 21.9321 1.22979 21.9418C1.22676 21.9448 1.22373 21.9478 1.22071 21.9509C1.21769 21.9539 1.21468 21.9569 1.21168 21.9599C1.20868 21.9629 1.20569 21.9659 1.2027 21.9689C1.19972 21.9719 1.19675 21.9748 1.19378 21.9778C1.1387 22.0329 1.1783 21.9933 1.12442 22.0471C1.08824 22.0833 1.12699 22.0446 1.09111 22.0805C1.08837 22.0832 1.08564 22.0859 1.08292 22.0887C1.0802 22.0914 1.07749 22.0941 1.07479 22.0968C1.07236 22.0992 1.06107 22.1105 1.05872 22.1129C1.01374 22.1578 0.978513 22.1931 0.938705 22.2329C0.936692 22.2349 0.926738 22.2448 0.924808 22.2468C0.918152 22.2534 0.917734 22.2538 0.911162 22.2604C0.862081 22.3095 0.933372 22.2382 0.884631 22.2869C0.79606 22.3755 0.960234 22.2113 0.871749 22.2998C0.869624 22.3019 0.867509 22.3041 0.865405 22.3062C0.863301 22.3083 0.861208 22.3104 0.859126 22.3124C0.828834 22.3427 0.864604 22.307 0.834661 22.3369C0.825695 22.3459 0.819864 22.3517 0.811252 22.3603C0.732435 22.4391 0.867369 22.3042 0.788911 22.3827C0.672204 22.4994 0.862737 22.3088 0.747493 22.4241C0.660054 22.5115 0.796461 22.3751 0.710522 22.4611C0.707731 22.4638 0.696149 22.4754 0.69374 22.4778C0.670851 22.5007 0.708573 22.463 0.685781 22.4858C0.684478 22.4871 0.683188 22.4884 0.68191 22.4897C0.680632 22.4909 0.679366 22.4922 0.678112 22.4935C0.675831 22.4957 0.665541 22.506 0.663652 22.5079C0.569715 22.6019 0.743915 22.4277 0.650375 22.5212C0.622254 22.5493 0.666015 22.5056 0.638295 22.5333C0.600623 22.571 0.664693 22.5069 0.627427 22.5441C0.557733 22.6138 0.659355 22.5122 0.596348 22.5752C0.595696 22.5759 0.591971 22.5796 0.591749 22.5798C0.589507 22.5821 0.590254 22.5813 0.588446 22.5831C0.587053 22.5845 0.587407 22.5842 0.586454 22.5851C0.585924 22.5856 0.586373 22.5852 0.585954 22.5856C0.585898 22.5857 0.585856 22.5857 0.585828 22.5857C0.5858 22.5858 0.585786 22.5858 2 24Z" fill="#989494"/>
<path d="M16.667 4.27197L17.4481 4.27197C18.6555 4.27197 19.8134 4.75161 20.6672 5.60536C21.5209 6.45911 22.0005 7.61705 22.0005 8.82444L22.0005 8.93883" stroke="#989494" stroke-linecap="round"/>
<circle cx="16.5" cy="9.5" r="8.7" stroke="#989494" stroke-width="1.6"/>
<circle cx="2" cy="24" r="1" fill="white"/>
</svg>
