<svg width="32" height="42" viewBox="0 0 32 42" fill="none" xmlns="http://www.w3.org/2000/svg">
<path d="M30.75 40.75H0.75V0.75H30.75V40.6234M26.5833 10.75V13.25H4.91667V10.75M26.5833 10.75V4.08333H4.91667V10.75M26.5833 10.75H19.9167M4.91667 10.75H11.5833M26.5833 23.25V25.75H4.91667V23.25M26.5833 23.25V16.5833H4.91667V23.25M26.5833 23.25H19.9167M4.91667 23.25H11.5833M26.5833 35.75V38.25H4.91667V35.75M26.5833 35.75V29.0833H4.91667V35.75M26.5833 35.75H19.9167M4.91667 35.75H11.5833M14.5 8.25L14.6403 7.96945C14.8097 7.63067 15.1559 7.41667 15.5347 7.41667H16.1691C16.4343 7.41667 16.6887 7.52202 16.8762 7.70956L17.5429 8.37623C17.9334 8.76675 17.9334 9.39992 17.5429 9.79044L16.8762 10.4571C16.6887 10.6446 16.4343 10.75 16.1691 10.75H15.5347C15.1559 10.75 14.8097 10.536 14.6403 10.1972L14.3069 9.53055C14.1662 9.24902 14.1662 8.91765 14.3069 8.63612L14.5 8.25ZM15.9145 19.9167H15.8484C15.2774 19.9167 14.7554 20.2393 14.5 20.75L14.456 20.838C14.2214 21.3072 14.2214 21.8595 14.456 22.3287L14.4704 22.3575C14.7439 22.9045 15.303 23.25 15.9145 23.25C16.3428 23.25 16.7578 23.0755 17.0606 22.7727C17.7115 22.1219 17.7115 21.0448 17.0606 20.3939C16.7578 20.0911 16.3428 19.9167 15.9145 19.9167ZM15.9145 32.4167H15.8484C15.2774 32.4167 14.7554 32.7393 14.5 33.25L14.456 33.338C14.2214 33.8072 14.2214 34.3595 14.456 34.8287L14.4704 34.8575C14.7439 35.4045 15.303 35.75 15.9145 35.75C16.3428 35.75 16.7578 35.5755 17.0606 35.2727C17.7115 34.6219 17.7115 33.5448 17.0606 32.8939C16.7578 32.5911 16.3428 32.4167 15.9145 32.4167Z" stroke="#0E3EA5" stroke-width="1.5" stroke-linecap="round"/>
</svg>
