<svg width="38" height="38" viewBox="0 0 38 38" fill="none" xmlns="http://www.w3.org/2000/svg">
<path d="M17.5689 33.3429H19.9975C20.3122 33.3429 20.6086 33.4911 20.7975 33.7429L22.5682 36.1038C22.8581 36.4905 23.3831 36.6144 23.8154 36.3983L27.659 34.4764C27.9978 34.3071 28.2118 33.9608 28.2118 33.582V30.3286C28.2118 30.0633 28.3171 29.809 28.5047 29.6214L29.6332 28.4929C29.8207 28.3054 30.0751 28.2001 30.3403 28.2001H33.5937C33.9725 28.2001 34.3188 27.9861 34.4882 27.6473L36.4609 23.7019C36.6534 23.3169 36.5779 22.8519 36.2736 22.5475L33.6475 19.9215C33.46 19.734 33.3546 19.4796 33.3546 19.2144V18.3286C33.3546 18.0633 33.46 17.809 33.6475 17.6214L36.2735 14.9954C36.5779 14.6911 36.6534 14.2261 36.4609 13.8411L34.4882 9.8957C34.3188 9.55692 33.9725 9.34291 33.5937 9.34291H30.3403C30.0751 9.34291 29.8207 9.23756 29.6332 9.05002L28.5047 7.92152C28.3171 7.73398 28.2118 7.47963 28.2118 7.21441V3.96095C28.2118 3.58218 27.9978 3.23591 27.659 3.06652L23.8154 1.14472C23.3831 0.928586 22.8581 1.05252 22.5682 1.43915L20.7975 3.80006C20.6086 4.05186 20.3122 4.20006 19.9975 4.20006H17.5689C17.2542 4.20006 16.9578 4.05186 16.7689 3.80006L14.969 1.40022C14.6923 1.03122 14.1991 0.899379 13.7751 1.08107L9.24328 3.02329C8.80863 3.20957 8.56388 3.67485 8.65662 4.13855L9.24967 7.10384C9.31525 7.4317 9.21262 7.77064 8.9762 8.00706L7.93324 9.05002C7.7457 9.23756 7.49135 9.34291 7.22613 9.34291H3.97267C3.59389 9.34291 3.24763 9.55691 3.07824 9.8957L1.10554 13.8411C0.913042 14.2261 0.988496 14.6911 1.29286 14.9954L3.91888 17.6214C4.10642 17.809 4.21177 18.0633 4.21177 18.3286V19.2144C4.21177 19.4796 4.10642 19.734 3.91888 19.9215L1.29286 22.5475C0.988497 22.8519 0.913042 23.3169 1.10554 23.7019L3.07824 27.6473C3.24763 27.9861 3.59389 28.2001 3.97267 28.2001H7.22613C7.49135 28.2001 7.7457 28.3054 7.93324 28.4929L9.06174 29.6214C9.24928 29.809 9.35463 30.0633 9.35463 30.3286V33.582C9.35463 33.9608 9.56863 34.3071 9.90742 34.4764L13.751 36.3983C14.1833 36.6144 14.7083 36.4905 14.9982 36.1038L16.7689 33.7429C16.9578 33.4911 17.2542 33.3429 17.5689 33.3429Z" stroke="#C2D5FF" stroke-width="2" stroke-linecap="round"/>
<circle cx="18.7831" cy="18.7713" r="8.42857" stroke="#C2D5FF" stroke-width="2"/>
</svg>
