<svg width="42" height="34" viewBox="0 0 42 34" fill="none" xmlns="http://www.w3.org/2000/svg">
<path d="M0.75 32.75H4.55952M40.75 32.75H37.8929M37.8929 32.75V12.8701C37.8929 12.3178 37.4451 11.8701 36.8929 11.8701H32.2262C31.6739 11.8701 31.2262 12.3178 31.2262 12.8701V31.7557M37.8929 32.75H28.369M28.369 32.75V19.8301C28.369 19.2778 27.9213 18.8301 27.369 18.8301H23.6548C23.1025 18.8301 22.6548 19.2778 22.6548 19.8301V32.75M28.369 32.75H22.6548M22.6548 32.75H19.7976M19.7976 32.75V16.8472C19.7976 16.2949 19.3499 15.8472 18.7976 15.8472H15.0833C14.531 15.8472 14.0833 16.2949 14.0833 16.8472V32.75M19.7976 32.75H14.0833M14.0833 32.75H10.2738M10.2738 32.75V24.8015C10.2738 24.2492 9.82609 23.8015 9.27381 23.8015H5.55952C5.00724 23.8015 4.55952 24.2492 4.55952 24.8015V32.75M10.2738 32.75H4.55952M13.131 5.7214L7.41667 10.8758M7.41667 10.8758L6.75957 10.1898C6.57095 9.99291 6.31009 9.88156 6.03741 9.88156H4.60714C4.05486 9.88156 3.60714 10.3293 3.60714 10.8816V11.8701V12.8587C3.60714 13.411 4.05486 13.8587 4.60714 13.8587H5.5119H6.41667C6.96895 13.8587 7.41667 13.411 7.41667 12.8587V11.8701V10.8758ZM31.7684 4.1281L25.8083 7.7099M21.9988 8.70418C21.9988 9.80243 22.8516 10.6927 23.9036 10.6927C24.9556 10.6927 25.8083 9.80243 25.8083 8.70418V7.7099M21.9988 8.70418C21.9988 7.60593 22.8516 6.71562 23.9036 6.71562H24.067C24.5722 6.71562 25.0566 6.92513 25.4139 7.29806L25.8083 7.7099M21.9988 8.70418L16.9405 5.60929M16.9405 5.60929C16.6291 6.26492 15.9814 6.71562 15.233 6.71562C14.181 6.71562 13.3282 5.82531 13.3282 4.72706C13.3282 3.62881 14.181 2.7385 15.233 2.7385H15.4035C15.8347 2.7385 16.3566 2.91733 16.6615 3.23564C16.9664 3.55395 17.1377 3.98568 17.1377 4.43584V4.72706C17.1377 5.04391 17.0667 5.34345 16.9405 5.60929ZM33.3015 0.75H33.131C32.079 0.75 31.2262 1.64031 31.2262 2.73856C31.2262 3.83681 32.079 4.72712 33.131 4.72712C34.1829 4.72712 35.0357 4.0199 35.0357 2.92165V2.15207C35.0357 2.00411 35.0038 1.85728 34.9269 1.73089C34.846 1.59795 34.7216 1.41638 34.5595 1.24714C34.2546 0.928827 33.7327 0.75 33.3015 0.75Z" stroke="#C2D5FF" stroke-width="1.5" stroke-linecap="round"/>
</svg>
