<svg width="38" height="38" viewBox="0 0 38 38" fill="none" xmlns="http://www.w3.org/2000/svg">
<path d="M1.72297 31.4447C9.9304 33.9253 9.99284 33.8784 18.4729 36.2326C18.6504 36.2819 18.8437 36.2828 19.0209 36.2322L35.777 31.4447M18.75 32.4773L35.2857 27.8805C36.1511 27.6399 36.75 26.8518 36.75 25.9535V2.45408M18.75 32.4773L2.21433 27.8805C1.34888 27.6399 0.75 26.8518 0.75 25.9535V2.45408M18.75 32.4773V28.9031M18.75 28.9031L5.92358 25.0425C5.07848 24.7882 4.5 24.0099 4.5 23.1274V2.75075C4.5 1.48814 5.65554 0.541436 6.89347 0.789834L18.75 3.16892M18.75 28.9031L31.5764 25.0425C32.4215 24.7882 33 24.0099 33 23.1274V2.75075C33 1.48814 31.8445 0.541436 30.6065 0.789835L18.75 3.16892M18.75 28.9031V3.16892M7.5 6.74311L16.5 8.88762M7.5 13.8915L16.5 16.036M7.5 21.0399L16.5 23.1844M21 8.88762L30 6.74311M21 16.036L30 13.8915M21 23.1844L30 21.0399" stroke="#C2D5FF" stroke-width="1.5" stroke-linecap="round"/>
</svg>
