<svg width="38" height="38" viewBox="0 0 38 38" fill="none" xmlns="http://www.w3.org/2000/svg">
<path d="M1.72297 31.445C9.9304 33.9255 9.99284 33.8787 18.4729 36.2329C18.6504 36.2821 18.8437 36.283 19.0209 36.2324L35.777 31.445M18.75 32.4775L35.2857 27.8807C36.1511 27.6401 36.75 26.852 36.75 25.9538V2.45433M18.75 32.4775L2.21433 27.8807C1.34888 27.6401 0.75 26.852 0.75 25.9538V2.45433M18.75 32.4775V28.9033M18.75 28.9033L5.92358 25.0428C5.07848 24.7884 4.5 24.0102 4.5 23.1276V2.75099C4.5 1.48839 5.65554 0.54168 6.89347 0.790079L18.75 3.16916M18.75 28.9033L31.5764 25.0428C32.4215 24.7884 33 24.0102 33 23.1276V2.75099C33 1.48839 31.8445 0.54168 30.6065 0.790079L18.75 3.16916M18.75 28.9033V3.16916M7.5 6.74335L16.5 8.88786M7.5 13.8917L16.5 16.0362M7.5 21.0401L16.5 23.1846M21 8.88786L30 6.74335M21 16.0362L30 13.8917M21 23.1846L30 21.0401" stroke="#0E3EA5" stroke-width="1.5" stroke-linecap="round"/>
</svg>
